<svg height="800" viewBox="0 0 51.463 51.463" width="800" xmlns="http://www.w3.org/2000/svg"><path d="m24.832 22.621v10.529c.903.114 2.122.204 3.747.204 2.96 0 5.373-.7 6.889-2.079 1.448-1.311 2.372-3.343 2.372-6.051 0-2.598-.905-4.407-2.372-5.603-1.398-1.175-3.363-1.764-6.209-1.764l-4.427.038v2.167l4.672-.034c3.479 0 5.422 1.919 5.397 5.284 0 3.864-2.145 5.85-5.756 5.828-.566 0-1.15 0-1.537-.067v-8.453h-2.776z"/><path d="m18.118 31.155c-1.451 0-2.874-.584-3.459-.936l-.654 2.175c.819.536 2.408 1.048 4.254 1.048 3.76 0 5.909-2.029 5.909-4.601 0-2.056-1.494-3.458-3.34-3.784v-.047c1.867-.657 2.801-1.962 2.801-3.553 0-1.987-1.61-3.715-4.741-3.715-1.822 0-3.506.562-4.369 1.17l.655 2.078c.63-.421 1.867-.96 3.104-.96 1.66 0 2.435.866 2.435 1.896 0 1.519-1.681 2.126-3.016 2.126h-1.283v2.104h1.332c1.748 0 3.429.771 3.429 2.568.029 1.194-.862 2.431-3.057 2.431z"/><path d="m8.832 11.011 8.335 2.675c.059.084.153.137.256.137.032 0 .065-.005.098-.017l.011-.003 7.917 2.541c.03.01.063.015.095.015.031 0 .063-.005.094-.015l7.6-2.438c.007 0 .013.003.02.003.071 0 .141-.026.194-.071l16.708-5.363c.129-.041.216-.161.216-.295 0-.135-.087-.255-.216-.296l-24.524-7.869c-.061-.02-.127-.02-.188 0l-24.522 7.868c-.128.041-.216.161-.216.296s.088.254.216.295l7.906 2.537c-.001 0-.001 0 0 0zm8.695 2.138-7.605-2.44 7.012-2.352 7.378 2.518zm.376-5.117 7.534-2.525 7.462 2.488-7.619 2.555zm7.64 7.69-7.018-2.252 6.755-2.264 6.95 2.371zm7.677-2.464-6.971-2.378 7.631-2.559 7.221 2.407zm8.293-7.497 7.534 2.418-6.978 2.239c-.025-.02-.053-.038-.084-.048l-7.127-2.376 6.646-2.229c.003 0 .006-.003.009-.004zm-.996-.32-6.638 2.226-7.463-2.488 6.496-2.178zm-14.974-4.805 6.371 2.044-6.478 2.172-6.391-2.131zm-7.49 2.403c.009.004.017.012.026.016l6.378 2.126-7.523 2.522-6.501-2.219zm-8.574 2.752c.029.024.063.046.103.06l6.383 2.177-7.041 2.361-6.887-2.209z"/><path d="m50.54 42.987-24.521-8.006c-.063-.021-.13-.021-.193 0l-24.522 8.006c-.128.042-.214.162-.214.296 0 .136.088.255.216.296l7.693 2.469c.023.011.047.019.072.022l16.756 5.377c.03.011.063.016.094.016.032 0 .064-.005.095-.016l24.521-7.868c.128-.041.215-.16.216-.296 0-.135-.086-.254-.213-.296zm-17.286-4.989 7.562 2.469-6.733 2.284-7.485-2.511 6.615-2.218c.015-.005.026-.017.041-.024zm-.144 5.081-7.354 2.494-7.555-2.519 7.419-2.487zm-7.189-7.475 6.357 2.076-6.659 2.233-6.363-2.134zm-7.65 2.498c.004.002.008.005.012.006l6.359 2.132-7.421 2.488-6.493-2.164zm-15.862 5.178 7.341-2.396c.014.007.023.017.037.021l6.455 2.152-7.105 2.382zm7.725 2.48 7.088-2.376 7.561 2.521-6.904 2.342zm15.787 5.065-7.049-2.262 6.885-2.335 7.105 2.37zm7.889-2.53c-.033-.033-.07-.061-.117-.075l-6.961-2.321 7.352-2.494 7.316 2.454zm8.589-2.756-7.346-2.464 6.655-2.257c.024-.008.045-.024.065-.039l7.66 2.5z"/><path d="m1.09 10.664v29.175c0 .171.139.311.31.311.173 0 .312-.139.312-.311v-29.175c0-.171-.139-.311-.312-.311-.171.001-.31.14-.31.311z"/><path d="m9.276 13.893v22.717c0 .146.118.265.265.265.146 0 .264-.118.264-.265v-22.717c0-.146-.118-.265-.264-.265-.147 0-.265.118-.265.265z"/><path d="m49.86 10.421c-.172 0-.311.139-.311.311v29.175c0 .173.139.312.311.312s.312-.139.312-.312v-29.176c-.001-.17-.14-.31-.312-.31z"/><path d="m41.458 13.96v22.719c0 .146.118.265.266.265.146 0 .264-.119.264-.265v-22.719c0-.146-.118-.265-.264-.265-.148 0-.266.118-.266.265z"/></svg>