<svg height="64pt" preserveAspectRatio="xMidYMid meet" viewBox="0 0 64 64" width="64pt" xmlns="http://www.w3.org/2000/svg"><g transform="matrix(.1 0 0 -.1 0 64)"><path d="m0 320v-320h320 320v320 320h-320-320zm403 186c-3-6-2-8 2-3 9 7 65-40 65-55 0-19-27-5-62 30-31 32-44 39-83 41-41 2-51-2-92-39-73-64-90-51-20 17 39 39 47 42 102 45 62 3 101-13 88-36zm-59-22c11-4 14-14 9-37-3-18-9-36-13-42-4-5-10-18-13-27-4-13-2-15 10-11 11 4 14 3 9-6-4-6-2-18 4-26 18-21 3-35-38-35-20 0-32 4-26 8s10 15 8 24c-2 15 1 16 17 7 11-5 17-14 14-20-4-5-1-9 4-9 6 0 11 7 11 15s-4 15-10 15c-5 0-13 12-16 28-4 15-10 32-14 37-15 20-19 74-7 79 17 7 33 7 51 0zm-140-167c-1-9 3-14 8-11s20-3 32-15c29-27 109-39 134-20 10 8 7 4-6-8-17-17-35-23-70-23-41 0-51 5-89 42-46 45-54 62-25 56 9-2 16-11 16-21zm216-40c0-2-10-12-22-23l-23-19 19 23c18 21 26 27 26 19zm-122-164c-10-2-28-2-40 0-13 2-5 4 17 4 22 1 32-1 23-4zm105 0c-7-2-21-2-30 0-10 3-4 5 12 5 17 0 24-2 18-5zm54 1c-3-3-12-4-19-1-8 3-5 6 6 6 11 1 17-2 13-5z"/><path d="m320 439c0-17 4-28 10-24 6 3 10 17 10 31 0 13-4 24-10 24-5 0-10-14-10-31z"/></g></svg>